<svg width="23" height="18" viewBox="0 0 23 18" fill="none" xmlns="http://www.w3.org/2000/svg">
<path fill-rule="evenodd" clip-rule="evenodd" d="M6.57143 9.81818C6.57143 7.10697 8.77803 4.90909 11.5 4.90909C14.222 4.90909 16.4286 7.10697 16.4286 9.81818C16.4286 12.5294 14.222 14.7273 11.5 14.7273C8.77803 14.7273 6.57143 12.5294 6.57143 9.81818ZM11.5 6.54545C9.68535 6.54545 8.21429 8.0107 8.21429 9.81818C8.21429 11.6257 9.68535 13.0909 11.5 13.0909C13.3147 13.0909 14.7857 11.6257 14.7857 9.81818C14.7857 8.0107 13.3147 6.54545 11.5 6.54545Z" fill="black"/>
<path fill-rule="evenodd" clip-rule="evenodd" d="M7.38956 0.82855C7.8094 0.341053 8.42128 0 9.13839 0H13.8616C14.5787 0 15.1906 0.341052 15.6104 0.82855C15.6363 0.858525 15.6599 0.890322 15.6811 0.923691L17.0115 3.01752C17.179 3.19444 17.3709 3.27273 17.5067 3.27273H20.5357C21.1893 3.27273 21.8161 3.53133 22.2782 3.99165C22.7404 4.45196 23 5.07629 23 5.72727V15.5455C23 16.1964 22.7404 16.8208 22.2782 17.2811C21.8161 17.7414 21.1893 18 20.5357 18H2.46429C1.81072 18 1.18392 17.7414 0.721773 17.2811C0.259629 16.8208 0 16.1964 0 15.5455V5.72727C0 5.07629 0.259629 4.45196 0.721773 3.99165C1.18392 3.53133 1.81072 3.27273 2.46429 3.27273H2.66964V2.86364C2.66964 2.41177 3.03741 2.04545 3.49107 2.04545H4.72321C5.17688 2.04545 5.54464 2.41177 5.54464 2.86364V3.27273C5.65265 3.27273 5.80335 3.21929 5.98724 3.01948L7.31894 0.923691C7.34015 0.890322 7.36375 0.858525 7.38956 0.82855ZM8.67047 1.85651L7.34048 3.9496C7.31938 3.9828 7.29592 4.01444 7.27026 4.04428C6.89417 4.48165 6.3149 4.90909 5.54464 4.90909H2.46429C2.24643 4.90909 2.0375 4.99529 1.88345 5.14873C1.7294 5.30217 1.64286 5.51028 1.64286 5.72727V15.5455C1.64286 15.7625 1.7294 15.9706 1.88345 16.124C2.0375 16.2774 2.24643 16.3636 2.46429 16.3636H20.5357C20.7536 16.3636 20.9625 16.2774 21.1166 16.124C21.2706 15.9706 21.3571 15.7624 21.3571 15.5455V5.72727C21.3571 5.51028 21.2706 5.30217 21.1166 5.14873C20.9625 4.99529 20.7536 4.90909 20.5357 4.90909H17.5067C16.7636 4.90909 16.1307 4.51061 15.7297 4.04428C15.7041 4.01444 15.6806 3.9828 15.6595 3.9496L14.3295 1.85651C14.1818 1.70203 14.0175 1.63636 13.8616 1.63636H9.13839C8.98247 1.63636 8.81816 1.70203 8.67047 1.85651Z" fill="black"/>
</svg>
