<svg width="592" height="488" viewBox="0 0 592 488" fill="none" xmlns="http://www.w3.org/2000/svg">
<g filter="url(#filter0_d)">
<path d="M54.6217 33.6854C55.7964 23.6033 64.3371 16 74.4873 16H551.534C563.497 16 572.785 26.4321 571.4 38.3146L537.378 330.315C536.204 340.397 527.663 348 517.513 348H40.4655C28.5026 348 19.2155 337.568 20.5999 325.685L54.6217 33.6854Z" fill="white"/>
</g>
<g filter="url(#filter1_d)">
<path d="M118.302 82.6229C119.506 72.5685 128.034 65 138.16 65H464.463C476.451 65 485.746 75.4739 484.321 87.3771L461.698 276.377C460.494 286.432 451.966 294 441.84 294H115.537C103.549 294 94.2537 283.526 95.6786 271.623L118.302 82.6229Z" fill="#EFEFF4"/>
</g>
<g filter="url(#filter2_d)">
<path d="M310.275 155.155C311.206 147.642 317.59 142 325.161 142H489.578C498.594 142 505.573 149.897 504.464 158.845L468.277 450.845C467.345 458.358 460.961 464 453.39 464H288.974C279.958 464 272.979 456.103 274.088 447.155L310.275 155.155Z" fill="white"/>
<g filter="url(#filter3_d)">
<path d="M319.039 176.36C320.338 166.399 328.825 158.947 338.871 158.947H454.624C466.697 158.947 476.017 169.563 474.456 181.534L471.715 202.545C470.416 212.506 461.929 219.958 451.883 219.958H336.13C324.057 219.958 314.736 209.342 316.298 197.371L319.039 176.36Z" fill="#EFEFF4"/>
</g>
<g filter="url(#filter4_d)">
<path d="M312.26 250.251C313.559 240.29 322.046 232.838 332.092 232.838H447.845C459.918 232.838 469.238 243.453 467.677 255.425L464.936 276.435C463.637 286.397 455.15 293.848 445.104 293.848H329.351C317.278 293.848 307.957 283.233 309.519 271.261L312.26 250.251Z" fill="#EFEFF4"/>
</g>
<g filter="url(#filter5_d)">
<path d="M301.413 323.464C302.713 313.502 311.2 306.051 321.245 306.051H436.998C449.071 306.051 458.392 316.666 456.83 328.638L454.09 349.648C452.79 359.609 444.303 367.061 434.258 367.061H318.505C306.432 367.061 297.111 356.446 298.673 344.474L301.413 323.464Z" fill="#EFEFF4"/>
</g>
<g filter="url(#filter6_d)">
<path d="M292.601 396.676C293.9 386.715 302.387 379.263 312.433 379.263H428.186C440.259 379.263 449.579 389.879 448.018 401.85L445.277 422.861C443.978 432.822 435.491 440.274 425.445 440.274H309.692C297.619 440.274 288.298 429.658 289.86 417.687L292.601 396.676Z" fill="#EFEFF4"/>
</g>
<path d="M325.856 183.649C326.92 173.463 335.506 165.726 345.747 165.726H352.842C364.71 165.726 373.967 176.001 372.734 187.804L372.026 194.579C370.963 204.765 362.376 212.501 352.135 212.501H345.04C333.172 212.501 323.915 202.227 325.148 190.423L325.856 183.649Z" fill="#008FB2"/>
<path d="M325.856 183.649C326.92 173.463 335.506 165.726 345.747 165.726H352.842C364.71 165.726 373.967 176.001 372.734 187.804L372.026 194.579C370.963 204.765 362.376 212.501 352.135 212.501H345.04C333.172 212.501 323.915 202.227 325.148 190.423L325.856 183.649Z" fill="url(#paint0_linear)"/>
<path d="M317.043 257.539C318.107 247.353 326.693 239.617 336.935 239.617H344.03C355.897 239.617 365.154 249.891 363.921 261.694L363.214 268.469C362.15 278.655 353.563 286.392 343.322 286.392H336.227C324.36 286.392 315.103 276.117 316.335 264.314L317.043 257.539Z" fill="#008FB2"/>
<path d="M317.043 257.539C318.107 247.353 326.693 239.617 336.935 239.617H344.03C355.897 239.617 365.154 249.891 363.921 261.694L363.214 268.469C362.15 278.655 353.563 286.392 343.322 286.392H336.227C324.36 286.392 315.103 276.117 316.335 264.314L317.043 257.539Z" fill="url(#paint1_linear)"/>
<path d="M308.23 330.752C309.294 320.566 317.881 312.829 328.122 312.829H335.217C347.085 312.829 356.342 323.104 355.109 334.907L354.401 341.682C353.337 351.868 344.751 359.604 334.509 359.604H327.415C315.547 359.604 306.29 349.33 307.523 337.527L308.23 330.752Z" fill="#008FB2"/>
<path d="M308.23 330.752C309.294 320.566 317.881 312.829 328.122 312.829H335.217C347.085 312.829 356.342 323.104 355.109 334.907L354.401 341.682C353.337 351.868 344.751 359.604 334.509 359.604H327.415C315.547 359.604 306.29 349.33 307.523 337.527L308.23 330.752Z" fill="url(#paint2_linear)"/>
<path d="M299.418 403.964C300.482 393.779 309.068 386.042 319.31 386.042H326.404C338.272 386.042 347.529 396.316 346.296 408.12L345.589 414.895C344.525 425.08 335.938 432.817 325.697 432.817H318.602C306.734 432.817 297.477 422.543 298.71 410.739L299.418 403.964Z" fill="#008FB2"/>
<path d="M299.418 403.964C300.482 393.779 309.068 386.042 319.31 386.042H326.404C338.272 386.042 347.529 396.316 346.296 408.12L345.589 414.895C344.525 425.08 335.938 432.817 325.697 432.817H318.602C306.734 432.817 297.477 422.543 298.71 410.739L299.418 403.964Z" fill="url(#paint3_linear)"/>
</g>
<path d="M149.295 117.836C149.89 112.243 154.609 108 160.233 108H218.767C225.303 108 230.397 113.665 229.705 120.164C229.11 125.757 224.391 130 218.767 130H160.233C153.697 130 148.603 124.335 149.295 117.836Z" fill="#008FB2"/>
<path d="M149.295 117.836C149.89 112.243 154.609 108 160.233 108H218.767C225.303 108 230.397 113.665 229.705 120.164C229.11 125.757 224.391 130 218.767 130H160.233C153.697 130 148.603 124.335 149.295 117.836Z" fill="url(#paint4_linear)"/>
<path d="M145.59 146.601C146.294 141.112 150.967 137 156.501 137H231.499C238.13 137 243.253 142.822 242.41 149.399C241.706 154.888 237.033 159 231.499 159H156.501C149.87 159 144.747 153.178 145.59 146.601Z" fill="#008FB2"/>
<path d="M145.59 146.601C146.294 141.112 150.967 137 156.501 137H231.499C238.13 137 243.253 142.822 242.41 149.399C241.706 154.888 237.033 159 231.499 159H156.501C149.87 159 144.747 153.178 145.59 146.601Z" fill="url(#paint5_linear)"/>
<path d="M141.312 175.822C141.914 170.235 146.629 166 152.249 166H211.751C218.293 166 223.389 171.674 222.688 178.178C222.086 183.765 217.371 188 211.751 188H152.249C145.707 188 140.611 182.326 141.312 175.822Z" fill="#008FB2"/>
<path d="M141.312 175.822C141.914 170.235 146.629 166 152.249 166H211.751C218.293 166 223.389 171.674 222.688 178.178C222.086 183.765 217.371 188 211.751 188H152.249C145.707 188 140.611 182.326 141.312 175.822Z" fill="url(#paint6_linear)"/>
<path d="M139.305 204.07C140.24 198.822 144.804 195 150.134 195H262.866C269.713 195 274.897 201.189 273.695 207.93C272.76 213.178 268.196 217 262.866 217H150.134C143.287 217 138.103 210.811 139.305 204.07Z" fill="#008FB2"/>
<path d="M139.305 204.07C140.24 198.822 144.804 195 150.134 195H262.866C269.713 195 274.897 201.189 273.695 207.93C272.76 213.178 268.196 217 262.866 217H150.134C143.287 217 138.103 210.811 139.305 204.07Z" fill="url(#paint7_linear)"/>
<path d="M135.08 233.232C135.946 227.909 140.544 224 145.936 224H247.064C253.844 224 259.01 230.076 257.92 236.768C257.054 242.091 252.456 246 247.064 246H145.936C139.156 246 133.99 239.924 135.08 233.232Z" fill="#008FB2"/>
<path d="M135.08 233.232C135.946 227.909 140.544 224 145.936 224H247.064C253.844 224 259.01 230.076 257.92 236.768C257.054 242.091 252.456 246 247.064 246H145.936C139.156 246 133.99 239.924 135.08 233.232Z" fill="url(#paint8_linear)"/>
<defs>
<filter id="filter0_d" x="0.462967" y="0" width="591.074" height="372" filterUnits="userSpaceOnUse" color-interpolation-filters="sRGB">
<feFlood flood-opacity="0" result="BackgroundImageFix"/>
<feColorMatrix in="SourceAlpha" type="matrix" values="0 0 0 0 0 0 0 0 0 0 0 0 0 0 0 0 0 0 127 0"/>
<feOffset dy="4"/>
<feGaussianBlur stdDeviation="10"/>
<feColorMatrix type="matrix" values="0 0 0 0 0 0 0 0 0 0 0 0 0 0 0 0 0 0 0.08 0"/>
<feBlend mode="normal" in2="BackgroundImageFix" result="effect1_dropShadow"/>
<feBlend mode="normal" in="SourceGraphic" in2="effect1_dropShadow" result="shape"/>
</filter>
<filter id="filter1_d" x="75.5341" y="49" width="428.932" height="269" filterUnits="userSpaceOnUse" color-interpolation-filters="sRGB">
<feFlood flood-opacity="0" result="BackgroundImageFix"/>
<feColorMatrix in="SourceAlpha" type="matrix" values="0 0 0 0 0 0 0 0 0 0 0 0 0 0 0 0 0 0 127 0"/>
<feOffset dy="4"/>
<feGaussianBlur stdDeviation="10"/>
<feColorMatrix type="matrix" values="0 0 0 0 0 0 0 0 0 0 0 0 0 0 0 0 0 0 0.08 0"/>
<feBlend mode="normal" in2="BackgroundImageFix" result="effect1_dropShadow"/>
<feBlend mode="normal" in="SourceGraphic" in2="effect1_dropShadow" result="shape"/>
</filter>
<filter id="filter2_d" x="253.972" y="126" width="270.609" height="362" filterUnits="userSpaceOnUse" color-interpolation-filters="sRGB">
<feFlood flood-opacity="0" result="BackgroundImageFix"/>
<feColorMatrix in="SourceAlpha" type="matrix" values="0 0 0 0 0 0 0 0 0 0 0 0 0 0 0 0 0 0 127 0"/>
<feOffset dy="4"/>
<feGaussianBlur stdDeviation="10"/>
<feColorMatrix type="matrix" values="0 0 0 0 0 0 0 0 0 0 0 0 0 0 0 0 0 0 0.08 0"/>
<feBlend mode="normal" in2="BackgroundImageFix" result="effect1_dropShadow"/>
<feBlend mode="normal" in="SourceGraphic" in2="effect1_dropShadow" result="shape"/>
</filter>
<filter id="filter3_d" x="296.127" y="142.947" width="198.5" height="101.011" filterUnits="userSpaceOnUse" color-interpolation-filters="sRGB">
<feFlood flood-opacity="0" result="BackgroundImageFix"/>
<feColorMatrix in="SourceAlpha" type="matrix" values="0 0 0 0 0 0 0 0 0 0 0 0 0 0 0 0 0 0 127 0"/>
<feOffset dy="4"/>
<feGaussianBlur stdDeviation="10"/>
<feColorMatrix type="matrix" values="0 0 0 0 0 0 0 0 0 0 0 0 0 0 0 0 0 0 0.08 0"/>
<feBlend mode="normal" in2="BackgroundImageFix" result="effect1_dropShadow"/>
<feBlend mode="normal" in="SourceGraphic" in2="effect1_dropShadow" result="shape"/>
</filter>
<filter id="filter4_d" x="289.348" y="216.838" width="198.5" height="101.011" filterUnits="userSpaceOnUse" color-interpolation-filters="sRGB">
<feFlood flood-opacity="0" result="BackgroundImageFix"/>
<feColorMatrix in="SourceAlpha" type="matrix" values="0 0 0 0 0 0 0 0 0 0 0 0 0 0 0 0 0 0 127 0"/>
<feOffset dy="4"/>
<feGaussianBlur stdDeviation="10"/>
<feColorMatrix type="matrix" values="0 0 0 0 0 0 0 0 0 0 0 0 0 0 0 0 0 0 0.08 0"/>
<feBlend mode="normal" in2="BackgroundImageFix" result="effect1_dropShadow"/>
<feBlend mode="normal" in="SourceGraphic" in2="effect1_dropShadow" result="shape"/>
</filter>
<filter id="filter5_d" x="278.502" y="290.051" width="198.5" height="101.011" filterUnits="userSpaceOnUse" color-interpolation-filters="sRGB">
<feFlood flood-opacity="0" result="BackgroundImageFix"/>
<feColorMatrix in="SourceAlpha" type="matrix" values="0 0 0 0 0 0 0 0 0 0 0 0 0 0 0 0 0 0 127 0"/>
<feOffset dy="4"/>
<feGaussianBlur stdDeviation="10"/>
<feColorMatrix type="matrix" values="0 0 0 0 0 0 0 0 0 0 0 0 0 0 0 0 0 0 0.08 0"/>
<feBlend mode="normal" in2="BackgroundImageFix" result="effect1_dropShadow"/>
<feBlend mode="normal" in="SourceGraphic" in2="effect1_dropShadow" result="shape"/>
</filter>
<filter id="filter6_d" x="269.689" y="363.263" width="198.5" height="101.011" filterUnits="userSpaceOnUse" color-interpolation-filters="sRGB">
<feFlood flood-opacity="0" result="BackgroundImageFix"/>
<feColorMatrix in="SourceAlpha" type="matrix" values="0 0 0 0 0 0 0 0 0 0 0 0 0 0 0 0 0 0 127 0"/>
<feOffset dy="4"/>
<feGaussianBlur stdDeviation="10"/>
<feColorMatrix type="matrix" values="0 0 0 0 0 0 0 0 0 0 0 0 0 0 0 0 0 0 0.08 0"/>
<feBlend mode="normal" in2="BackgroundImageFix" result="effect1_dropShadow"/>
<feBlend mode="normal" in="SourceGraphic" in2="effect1_dropShadow" result="shape"/>
</filter>
<linearGradient id="paint0_linear" x1="348.941" y1="165.726" x2="322.842" y2="442.646" gradientUnits="userSpaceOnUse">
<stop stop-color="#469F3D"/>
<stop offset="1" stop-color="white" stop-opacity="0"/>
</linearGradient>
<linearGradient id="paint1_linear" x1="346.229" y1="167.421" x2="320.808" y2="432.139" gradientUnits="userSpaceOnUse">
<stop stop-color="#469F3D"/>
<stop offset="1" stop-color="white" stop-opacity="0"/>
</linearGradient>
<linearGradient id="paint2_linear" x1="350.636" y1="168.099" x2="320.469" y2="429.766" gradientUnits="userSpaceOnUse">
<stop stop-color="#469F3D"/>
<stop offset="1" stop-color="white" stop-opacity="0"/>
</linearGradient>
<linearGradient id="paint3_linear" x1="348.602" y1="166.743" x2="322.503" y2="432.817" gradientUnits="userSpaceOnUse">
<stop stop-color="#469F3D"/>
<stop offset="1" stop-color="white" stop-opacity="0"/>
</linearGradient>
<linearGradient id="paint4_linear" x1="189.5" y1="108" x2="185.5" y2="245" gradientUnits="userSpaceOnUse">
<stop stop-color="#469F3D"/>
<stop offset="1" stop-color="white" stop-opacity="0"/>
</linearGradient>
<linearGradient id="paint5_linear" x1="194" y1="109.5" x2="188.5" y2="246" gradientUnits="userSpaceOnUse">
<stop stop-color="#469F3D"/>
<stop offset="1" stop-color="white" stop-opacity="0"/>
</linearGradient>
<linearGradient id="paint6_linear" x1="185.36" y1="109" x2="175.85" y2="245.305" gradientUnits="userSpaceOnUse">
<stop stop-color="#469F3D"/>
<stop offset="1" stop-color="white" stop-opacity="0"/>
</linearGradient>
<linearGradient id="paint7_linear" x1="193.5" y1="109.5" x2="192" y2="246" gradientUnits="userSpaceOnUse">
<stop stop-color="#469F3D"/>
<stop offset="1" stop-color="white" stop-opacity="0"/>
</linearGradient>
<linearGradient id="paint8_linear" x1="197" y1="109.5" x2="189" y2="246" gradientUnits="userSpaceOnUse">
<stop stop-color="#469F3D"/>
<stop offset="1" stop-color="white" stop-opacity="0"/>
</linearGradient>
</defs>
</svg>
