<svg width="59" height="64" viewBox="0 0 59 64" fill="none" xmlns="http://www.w3.org/2000/svg">
<path fill-rule="evenodd" clip-rule="evenodd" d="M54.3481 11.5483L43.3091 21.3317C39.2244 15.8348 32.9847 12.3213 25.9929 12.3213C13.6882 12.3213 3.71322 23.2031 3.71322 36.6264C3.71322 42.1254 5.3872 47.1978 8.20955 51.2703C3.11724 45.825 0 38.5094 0 30.4657C0 13.64 13.64 0 30.4657 0C40.1436 0 48.7675 4.51254 54.3481 11.5483Z" fill="white"/>
<path fill-rule="evenodd" clip-rule="evenodd" d="M31.7814 46.0951C38.4868 44.9332 43.5695 39.9442 45.1754 33.7599L55.8651 40.6708C53.4463 49.6323 45.5349 56.9854 35.1495 58.7851C21.2345 61.1964 8.14727 52.7249 5.91848 39.8633C4.03939 29.0196 10.4786 18.5175 20.8847 14.0438L20.2162 15.1759C14.4747 18.6526 11.1511 25.4024 12.3663 32.4151C13.95 41.5541 22.6424 47.6788 31.7814 46.0951Z" fill="white"/>
</svg>
